HIERARCHY
ROOT Hips
{
	OFFSET 0.00000 0.00000 0.00000
	CHANNELS 6 Xposition Yposition Zposition Yrotation Zrotation Xrotation 
	JOINT Lumbar
	{
		OFFSET 0 0 0
		CHANNELS 3 Zrotation Xrotation Yrotation
		JOINT Neck
		{
			OFFSET 0.00 0.2701 0.00
			CHANNELS 3 Zrotation Xrotation Yrotation
			End Site
			{
				OFFSET 0.00 0.1379 0.00
			}
		}
		JOINT RightShoulder
		{
			OFFSET 0.0119 0.2289 0.1181
			CHANNELS 3 Zrotation Xrotation Yrotation
			JOINT RightElbow
			{
				OFFSET 0.00 -0.1475 0.00
				CHANNELS 2 Zrotation Yrotation
				JOINT RightWrist
				{
					OFFSET 0.00 -0.1605 0.00
					CHANNELS 2 Zrotation Xrotation
					End Site
					{
						OFFSET 0.0040 -0.1068 0.0006
					}
				}
			}
		}
		JOINT LeftShoulder
		{
			OFFSET 0.0119 0.2289 -0.1181
			CHANNELS 3 Zrotation Xrotation Yrotation
			JOINT LeftElbow
			{
				OFFSET 0.00 -0.1475 0.00
				CHANNELS 2 Zrotation Yrotation
				JOINT LeftWrist
				{
					OFFSET 0.00 -0.1605 0.00
					CHANNELS 2 Zrotation Xrotation
					End Site
					{
						OFFSET 0.0040 -0.1068 -0.0006
					}
				}
			}
		}
	}
	JOINT RightHip
	{
		OFFSET 0.0316 -0.0424 0.0458
		CHANNELS 3 Zrotation Xrotation Yrotation
		JOINT RightKnee
		{
			OFFSET 0.00 -0.2438 0.00
			CHANNELS 1 Zrotation
			JOINT RightAnkle
			{
				OFFSET 0.00 -0.2449 0.00
				CHANNELS 3 Zrotation Xrotation Yrotation
				End Site
				{
					OFFSET 0.1237 -0.0542 0.0051
				}
			}
		}
	}
	JOINT LeftHip
	{
		OFFSET 0.0316 -0.0424 -0.0458
		CHANNELS 3 Zrotation Xrotation Yrotation
		JOINT LeftKnee
		{
			OFFSET 0.00 -0.2438 0.00
			CHANNELS 1 Zrotation
			JOINT LeftAnkle
			{
				OFFSET 0.00 -0.2449 0.00
				CHANNELS 3 Zrotation Xrotation Yrotation
				End Site
				{
					OFFSET 0.1237 -0.0542 -0.0051
				}
			}
		}
	}
}
MOTION
Frames: 15
Frame Time: 0.02
-0 0.57926 -0 178.55391 0 -4.39989 8.37329 3.5221 -2.43806 -21.30791 6.51385 3.0597 15.52756 -16.96274 -12.3032 5.32985 78.45342 -2.37867 1.17694 19.05123 2.99688 3.24032 6.79879 -76.92948 -4.33278 0.02534 -4.74233 8.36334 6.78509 -4.51086 2.06784 -3.98333 -5.35663 -4.7998 0.47053 -9.85513 -4.81819 7.54036 5.88294 7.20261
-2e-05 0.57927 1e-05 178.5797 0 -4.40576 8.35472 3.51297 -2.44403 -21.30027 6.53438 3.07041 15.53041 -16.96398 -12.26305 5.32971 78.45874 -2.4281 1.12014 18.98958 2.94845 4.25771 6.67282 -76.83462 -4.40005 0.07568 -4.74794 8.37128 6.75984 -4.50715 2.06459 -3.99059 -5.36449 -4.80249 0.47812 -9.90019 -4.81279 7.53555 5.89619 7.21826
-4e-05 0.57927 3e-05 178.60491 0 -4.41169 8.33613 3.50412 -2.44993 -21.29265 6.55478 3.08111 15.53342 -16.96513 -12.22233 5.32959 78.46352 -2.47703 1.06382 18.92774 2.89961 5.26339 6.54816 -76.74034 -4.46648 0.12552 -4.75344 8.37924 6.73551 -4.50355 2.06129 -3.99794 -5.37268 -4.80527 0.48574 -9.94441 -4.80727 7.53078 5.90936 7.23355
-5e-05 0.57927 4e-05 178.62831 0 -4.41776 8.31737 3.49599 -2.45569 -21.28467 6.57501 3.09179 15.53687 -16.96608 -12.17829 5.32956 78.46865 -2.52405 1.00919 18.86483 2.84843 6.24202 6.42607 -76.64676 -4.53089 0.17381 -4.75863 8.38723 6.71482 -4.50017 2.05786 -4.00588 -5.38271 -4.8083 0.49347 -9.98573 -4.80138 7.5261 5.92244 7.24747
-8e-05 0.57928 6e-05 178.66158 0 -4.42291 8.29967 3.48366 -2.46228 -21.27816 6.59633 3.10246 15.53773 -16.96827 -12.15097 5.32904 78.47487 -2.58072 0.946 18.80793 2.80932 7.37591 6.28856 -76.54864 -4.60682 0.23026 -4.76557 8.39493 6.67507 -4.49544 2.05523 -4.01087 -5.38356 -4.80985 0.50052 -10.04248 -4.79765 7.52092 5.9361 7.26855
-9e-05 0.57928 7e-05 178.67374 0 -4.43009 8.27961 3.48047 -2.46702 -21.26884 6.61521 3.1132 15.54423 -16.96772 -12.0889 5.32957 78.47675 -2.61724 0.9007 18.73818 2.74492 8.17215 6.18503 -76.4608 -4.65775 0.26943 -4.76872 8.40332 6.67553 -4.4937 2.05085 -4.02197 -5.40345 -4.81462 0.50907 -10.06649 -4.78923 7.51682 5.94844 7.27456
-9e-05 0.57928 0.0001 178.62736 0 -4.44265 8.25329 3.50158 -2.46726 -21.24889 6.62803 3.12403 15.56568 -16.95995 -11.92176 5.33306 78.48367 -2.59454 0.90774 18.63108 2.60566 8.09072 6.16651 -76.39548 -4.64362 0.26003 -4.76181 8.41334 6.79267 -4.49925 2.04172 -4.05209 -5.48159 -4.82806 0.52142 -9.99767 -4.76812 7.51543 5.95798 7.23671
-7e-05 0.57927 0.00012 178.55953 0 -4.4573 8.22449 3.53222 -2.46541 -21.22671 6.63799 3.13491 15.59305 -16.94907 -11.72178 5.33758 78.48337 -2.55222 0.93228 18.51107 2.44228 7.65733 6.1845 -76.34176 -4.60372 0.23346 -4.75098 8.42412 6.94963 -4.50799 2.03078 -4.08802 -5.57801 -4.8448 0.53535 -9.89609 -4.74221 7.51516 5.96606 7.18403
-7e-05 0.57927 0.00014 178.50177 0 -4.47116 8.19665 3.55904 -2.46421 -21.20726 6.64915 3.14593 15.61806 -16.93971 -11.54154 5.34162 78.47487 -2.52107 0.94692 18.39829 2.29224 7.35031 6.19072 -76.28621 -4.57275 0.21508 -4.74166 8.43476 7.08473 -4.51591 2.02063 -4.1199 -5.66245 -4.8602 0.54881 -9.81111 -4.71827 7.51455 5.97425 7.13948
-5e-05 0.57927 0.00017 178.44316 0 -4.48437 8.16958 3.58335 -2.46466 -21.18018 6.66182 3.15652 15.64134 -16.931 -11.33782 5.34577 78.51357 -2.48003 0.96987 18.28047 2.1296 7.18872 6.17411 -76.21527 -4.55268 0.19449 -4.73352 8.44458 7.23521 -4.52117 2.01071 -4.15768 -5.76234 -4.87492 0.56123 -9.71925 -4.69516 7.51329 5.98473 7.08896
-5e-05 0.57927 0.00019 178.38058 0 -4.49941 8.14024 3.6156 -2.46069 -21.16893 6.66931 3.16767 15.67003 -16.91882 -11.17918 5.34988 78.45381 -2.45539 0.97957 18.16917 1.9907 6.63598 6.21686 -76.18023 -4.50485 0.17516 -4.72194 8.45625 7.36374 -4.53269 1.99978 -4.18462 -5.83446 -4.89186 0.57616 -9.63352 -4.66926 7.51358 5.99017 7.04749
-5e-05 0.57928 0.00018 178.31782 0 -4.51918 8.10597 3.66377 -2.44906 -21.19813 6.67415 3.18297 15.70899 -16.90867 -11.12103 5.35415 78.11008 -2.47698 0.9493 18.08661 1.89709 5.12967 6.38837 -76.2322 -4.37691 0.15642 -4.70215 8.47306 7.41647 -4.561 1.98729 -4.17975 -5.82498 -4.91399 0.59799 -9.57664 -4.63615 7.51833 5.98125 7.03356
-6e-05 0.57929 0.00016 178.25084 0 -4.54069 8.06936 3.7204 -2.43211 -21.24417 6.6714 3.19805 15.75382 -16.89257 -11.11668 5.35827 77.66981 -2.5164 0.90491 18.00944 1.83409 3.23488 6.62379 -76.32163 -4.2233 0.14027 -4.67898 8.49168 7.44675 -4.59544 1.97371 -4.16389 -5.78708 -4.93826 0.62224 -9.52654 -4.60052 7.52452 5.96741 7.02955
-7e-05 0.5793 0.00015 178.18209 0 -4.56129 8.03334 3.77545 -2.41517 -21.28488 6.6655 3.21189 15.79807 -16.87273 -11.10698 5.36211 77.2832 -2.55029 0.8664 17.92506 1.77295 1.49075 6.84642 -76.39996 -4.08842 0.12839 -4.65716 8.50933 7.49088 -4.62684 1.96014 -4.15336 -5.76242 -4.96161 0.64518 -9.47055 -4.56647 7.52971 5.95643 7.02153
-8e-05 0.57931 0.00014 178.12791 0 -4.5825 7.99924 3.82085 -2.40909 -21.31525 6.68913 3.23258 15.83362 -16.88215 -11.01005 5.36741 76.85623 -2.57294 0.83081 17.86112 1.64023 -0.15862 6.99943 -76.45366 -3.92467 0.09545 -4.63596 8.5276 7.52099 -4.65935 1.94854 -4.14153 -5.73675 -4.98483 0.66908 -9.42449 -4.53042 7.53632 5.94302 7.01041
